<svg width="24" height="24" viewBox="0 0 24 24" fill="none" xmlns="http://www.w3.org/2000/svg">
<path d="M10.24 11.39C9.67 11.39 9.22 11.89 9.22 12.5C9.22 13.11 9.68 13.61 10.24 13.61C10.81 13.61 11.26 13.11 11.26 12.5C11.27 11.89 10.81 11.39 10.24 11.39ZM13.89 11.39C13.32 11.39 12.87 11.89 12.87 12.5C12.87 13.11 13.33 13.61 13.89 13.61C14.46 13.61 14.91 13.11 14.91 12.5C14.91 11.89 14.46 11.39 13.89 11.39Z" fill="white"/>
<path d="M18.75 3H5.35005C4.22005 3 3.30005 3.92 3.30005 5.06V18.58C3.30005 19.72 4.22005 20.64 5.35005 20.64H16.69L16.16 18.79L17.44 19.98L18.65 21.1L20.8 23V5.06C20.8 3.92 19.88 3 18.75 3ZM14.89 16.06C14.89 16.06 14.53 15.63 14.23 15.25C15.54 14.88 16.04 14.06 16.04 14.06C15.63 14.33 15.24 14.52 14.89 14.65C14.39 14.86 13.91 15 13.44 15.08C12.48 15.26 11.6 15.21 10.85 15.07C10.28 14.96 9.79005 14.8 9.38005 14.64C9.15005 14.55 8.90005 14.44 8.65005 14.3C8.62005 14.28 8.59005 14.27 8.56005 14.25C8.54005 14.24 8.53005 14.23 8.52005 14.22C8.34005 14.12 8.24005 14.05 8.24005 14.05C8.24005 14.05 8.72005 14.85 9.99005 15.23C9.69005 15.61 9.32005 16.06 9.32005 16.06C7.11005 15.99 6.27005 14.54 6.27005 14.54C6.27005 11.32 7.71005 8.71 7.71005 8.71C9.15005 7.63 10.52 7.66 10.52 7.66L10.62 7.78C8.82005 8.3 7.99005 9.09 7.99005 9.09C7.99005 9.09 8.21005 8.97 8.58005 8.8C9.65005 8.33 10.5 8.2 10.85 8.17C10.91 8.16 10.96 8.15 11.02 8.15C11.63 8.07 12.32 8.05 13.04 8.13C13.99 8.24 15.01 8.52 16.05 9.09C16.05 9.09 15.2601 8.34 13.5601 7.82L13.7 7.66C13.7 7.66 15.07 7.63 16.51 8.71C16.51 8.71 17.95 11.32 17.95 14.54C17.95 14.54 17.1 15.99 14.89 16.06Z" fill="white"/>
</svg>
