<svg width="24" height="24" viewBox="0 0 24 24" fill="none" xmlns="http://www.w3.org/2000/svg">
<path d="M8.2918 20.125C15.8371 20.125 19.9652 13.8723 19.9652 8.45161C19.9652 8.27583 19.9613 8.09614 19.9535 7.92036C20.7566 7.33961 21.4496 6.62027 22 5.79614C21.2521 6.12889 20.458 6.34621 19.6449 6.44067C20.5011 5.92748 21.1421 5.12129 21.4492 4.17153C20.6438 4.64886 19.763 4.98557 18.8445 5.16724C18.2257 4.5097 17.4075 4.07432 16.5164 3.92844C15.6253 3.78255 14.711 3.93427 13.9148 4.36014C13.1186 4.78601 12.4848 5.46232 12.1115 6.28449C11.7382 7.10666 11.6462 8.02891 11.8496 8.90864C10.2187 8.8268 8.62328 8.40315 7.16665 7.66514C5.71002 6.92714 4.42474 5.89126 3.39414 4.62466C2.87033 5.52776 2.71005 6.59643 2.94586 7.61347C3.18167 8.63051 3.79589 9.5196 4.66367 10.1C4.01219 10.0794 3.37498 9.90396 2.80469 9.58833V9.63911C2.8041 10.5869 3.13175 11.5056 3.73192 12.239C4.3321 12.9725 5.16777 13.4755 6.09687 13.6625C5.49338 13.8277 4.85998 13.8517 4.2457 13.7329C4.50788 14.5479 5.01798 15.2608 5.70481 15.772C6.39164 16.2832 7.22093 16.5672 8.07695 16.5844C6.62369 17.726 4.82848 18.3452 2.98047 18.3422C2.65274 18.3417 2.32533 18.3217 2 18.2821C3.87738 19.4865 6.06128 20.1262 8.2918 20.125Z" fill="white"/>
</svg>
