<svg width="24" height="24" viewBox="0 0 24 24" fill="none" xmlns="http://www.w3.org/2000/svg">
<path fill-rule="evenodd" clip-rule="evenodd" d="M4.37167 8.06015C4.39667 7.8279 4.3025 7.5988 4.11917 7.44292L2.2525 5.31727V5H8.05083L12.5325 14.2859L16.4725 5H22V5.31727L20.4033 6.7635C20.2658 6.8627 20.1975 7.02567 20.2258 7.18706V17.8137C20.1975 17.9743 20.2658 18.1373 20.4033 18.2365L21.9625 19.6827V20H14.1192V19.6827L15.735 18.2011C15.8933 18.0515 15.8933 18.0074 15.8933 17.7783V9.1891L11.4025 19.9654H10.7958L5.56667 9.1891V16.4116C5.52333 16.7147 5.63 17.0209 5.85583 17.2398L7.95667 19.6473V19.9654H2V19.6473L4.10083 17.2398C4.32583 17.0202 4.42583 16.7123 4.37167 16.4116V8.06015Z" fill="white"/>
</svg>
