<svg width="24" height="24" viewBox="0 0 24 24" fill="none" xmlns="http://www.w3.org/2000/svg">
<path d="M20.8207 8.73164C20.8207 8.73164 20.6449 7.49063 20.1035 6.9457C19.418 6.22852 18.6516 6.225 18.3 6.18281C15.7828 6 12.0035 6 12.0035 6H11.9965C11.9965 6 8.21719 6 5.7 6.18281C5.34844 6.225 4.58203 6.22852 3.89648 6.9457C3.35508 7.49063 3.18281 8.73164 3.18281 8.73164C3.18281 8.73164 3 10.1906 3 11.6461V13.0102C3 14.4656 3.1793 15.9246 3.1793 15.9246C3.1793 15.9246 3.35508 17.1656 3.89297 17.7105C4.57852 18.4277 5.47852 18.4031 5.8793 18.4805C7.3207 18.6176 12 18.6598 12 18.6598C12 18.6598 15.7828 18.6527 18.3 18.4734C18.6516 18.4313 19.418 18.4277 20.1035 17.7105C20.6449 17.1656 20.8207 15.9246 20.8207 15.9246C20.8207 15.9246 21 14.4691 21 13.0102V11.6461C21 10.1906 20.8207 8.73164 20.8207 8.73164ZM10.1402 14.666V9.60703L15.0023 12.1453L10.1402 14.666Z" fill="white"/>
</svg>
