<svg width="24" height="24" viewBox="0 0 24 24" fill="none" xmlns="http://www.w3.org/2000/svg">
<path d="M2.33317 11.1599L6.70136 12.8305L8.4042 18.4501C8.47824 18.8298 8.92246 18.9057 9.21861 18.6779L11.6618 16.6275C11.8839 16.3997 12.2541 16.3997 12.5503 16.6275L16.9184 19.893C17.2146 20.1208 17.6588 19.9689 17.7329 19.5892L20.9905 3.64181C21.0645 3.26211 20.6943 2.88241 20.3241 3.03429L2.33317 10.1726C1.88894 10.3245 1.88894 11.008 2.33317 11.1599ZM8.1821 11.9952L16.7704 6.60347C16.9184 6.52753 17.0665 6.75535 16.9184 6.83129L9.88494 13.5899C9.66283 13.8178 9.44071 14.1215 9.44071 14.5012L9.21861 16.3238C9.21861 16.5516 8.84842 16.6275 8.77438 16.3238L7.88593 12.9824C7.66382 12.6027 7.81191 12.1471 8.1821 11.9952Z" fill="white"/>
</svg>
